<svg width="32" height="31" viewBox="0 0 32 31" fill="none" xmlns="http://www.w3.org/2000/svg">
<path d="M25.9717 11.2613V13.8447C25.9717 13.9507 25.9056 13.9899 25.7583 13.9899C25.6954 13.9878 25.6218 13.9857 25.5481 13.9857C24.6978 13.9857 23.8901 14.168 23.1624 14.4945L23.1987 14.4797C22.932 14.6005 22.7058 14.7659 22.5201 14.9684L22.5191 14.9705V21.7264C22.5191 21.8589 22.4657 21.9119 22.3462 21.9119H19.7194C19.7109 21.913 19.7013 21.914 19.6917 21.914C19.5967 21.914 19.5188 21.8441 19.5071 21.754V14.3609L19.4943 13.3676L19.4676 12.3341C19.4676 12.0298 19.4409 11.7383 19.4142 11.433C19.4132 11.4277 19.4132 11.4203 19.4132 11.4139C19.4132 11.3545 19.4527 11.3037 19.5071 11.2878H21.881C22.0101 11.2878 22.12 11.3779 22.1478 11.4977V11.4998C22.2577 11.8485 22.3217 12.2493 22.3217 12.6637C22.3217 12.6828 22.3217 12.7019 22.3217 12.721V12.7178C22.7229 12.2599 23.1998 11.8782 23.7354 11.592L23.7621 11.5793C24.3404 11.2538 25.0328 11.063 25.769 11.063C25.7754 11.063 25.7829 11.063 25.7893 11.063H25.7882C25.7946 11.062 25.8021 11.062 25.8095 11.062C25.8949 11.062 25.9653 11.1256 25.9749 11.2083L25.9717 11.2613ZM16.8792 15.4348C16.3457 16.1663 15.6148 16.726 14.7645 17.0408L14.7325 17.0514C13.9056 17.3387 12.9528 17.5051 11.9616 17.5051C11.8816 17.5051 11.8005 17.5041 11.7205 17.502H11.7322L11.0654 17.4892L10.4924 17.4765V21.7285C10.4935 21.737 10.4945 21.7455 10.4945 21.755C10.4945 21.8388 10.4294 21.9077 10.3462 21.914H7.75994C7.65324 21.914 7.59989 21.861 7.59989 21.7423V8.11069C7.59989 8.01847 7.63937 7.96546 7.73326 7.96546L8.48013 7.95274L9.49373 7.92624L10.6535 7.89974L11.8666 7.88701C11.9338 7.88489 12.0128 7.88383 12.0918 7.88383C12.9944 7.88383 13.8608 8.03543 14.6684 8.31423L14.613 8.29727C15.3107 8.53685 15.9072 8.90787 16.4012 9.38491L16.4001 9.38385C16.8184 9.80046 17.1491 10.304 17.3636 10.8648L17.3732 10.8934C17.5663 11.4054 17.6783 11.997 17.6794 12.615C17.6815 12.6712 17.6836 12.738 17.6836 12.8047C17.6836 13.7864 17.3838 14.697 16.8696 15.4539L16.8802 15.4369L16.8792 15.4348ZM26.3324 0.00106001H5.66658C2.53721 0.00106001 0 2.52194 0 5.63116V25.3699V25.3741C0 28.4812 2.53508 31 5.66231 31C5.66444 31 5.66551 31 5.66764 31H26.3334H26.3377C29.4649 31 32 28.4812 32 25.3741C32 25.372 32 25.371 32 25.3688V5.6301V5.62586C32 2.51876 29.4649 0 26.3377 0C26.3356 0 26.3345 0.00106001 26.3324 0.00106001ZM13.5321 10.7577C13.1096 10.5881 12.6199 10.4895 12.1067 10.4895C12.0544 10.4895 12.0032 10.4906 11.952 10.4927H11.9595C11.4751 10.4828 10.9907 10.4916 10.5063 10.5192V14.9705L11.0259 14.997H11.7322C11.7343 14.997 11.7375 14.997 11.7375 14.997C12.2838 14.997 12.8087 14.9101 13.3006 14.7489L13.2654 14.7585C13.7039 14.6281 14.0752 14.3832 14.3558 14.0588L14.358 14.0556C14.6183 13.7164 14.7751 13.2871 14.7751 12.8206C14.7751 12.7751 14.7741 12.7305 14.7709 12.6849V12.6913C14.7741 12.65 14.7762 12.6012 14.7762 12.5524C14.7762 11.7372 14.2651 11.0408 13.5439 10.762L13.5321 10.7577Z" fill="url(#paint0_linear_92_17)"/>
<defs>
<linearGradient id="paint0_linear_92_17" x1="16" y1="0" x2="16" y2="31" gradientUnits="userSpaceOnUse">
<stop stop-color="#FDAE4D"/>
<stop offset="1" stop-color="#FFA3C5"/>
</linearGradient>
</defs>
</svg>
