<svg width="32" height="31" viewBox="0 0 32 31" fill="none" xmlns="http://www.w3.org/2000/svg">
<path fill-rule="evenodd" clip-rule="evenodd" d="M5 0C2.23858 0 0 2.23858 0 5V26C0 28.7614 2.23858 31 5 31H27C29.7614 31 32 28.7614 32 26V5C32 2.23858 29.7614 0 27 0H5ZM27 20.2419V11.5073C27 10.8364 26.2689 10.4106 25.6883 10.7547L22.05 12.8534V12.2556C22.05 10.4579 20.5921 9 18.7944 9H9.25558C7.45792 9 6 10.4579 6 12.2556V19.5021C6 21.2998 7.45792 22.7577 9.25558 22.7577H18.7901C20.5878 22.7577 22.0457 21.2998 22.0457 19.5021V18.9044L25.684 21.0031C26.2689 21.3385 27 20.9171 27 20.2419Z" fill="url(#paint0_linear_92_30)"/>
<defs>
<linearGradient id="paint0_linear_92_30" x1="16" y1="0" x2="16" y2="31" gradientUnits="userSpaceOnUse">
<stop stop-color="#FDAE4D"/>
<stop offset="1" stop-color="#FFA3C5"/>
</linearGradient>
</defs>
</svg>
