<svg width="133" height="133" viewBox="0 0 133 133" fill="none" xmlns="http://www.w3.org/2000/svg">
<g clip-path="url(#clip0_98_19)">
<path d="M59.1208 56.6266L64.1052 72.2361H47.8369L52.727 56.6266C53.8559 52.8652 54.7957 48.4458 55.7356 44.7784H55.9236C56.8643 48.446 57.8981 52.7711 59.1208 56.6266ZM132.87 22.2533V110.747C132.87 122.915 122.915 132.87 110.747 132.87H22.2533C10.0854 132.87 0.129883 122.915 0.129883 110.747V22.2533C0.129883 10.0854 10.0854 0.129883 22.2533 0.129883H110.747C122.915 0.129883 132.87 10.0854 132.87 22.2533ZM84.228 98.9408L63.634 35.564H48.8715L28.5607 98.9408H40.5029L45.9572 80.9806H66.08L71.8161 98.9408H84.228ZM103.782 53.1473H92.1212V98.9408H103.782V53.1473ZM104.439 40.3593C104.345 36.7859 101.901 34.0594 97.9511 34.0594C94.0957 34.0594 91.4632 36.7859 91.4632 40.3593C91.4632 43.8388 94.0016 46.5653 97.8571 46.5653C101.901 46.5651 104.439 43.8386 104.439 40.3593Z" fill="url(#paint0_linear_98_19)"/>
</g>
<defs>
<linearGradient id="paint0_linear_98_19" x1="66.5" y1="0.129883" x2="66.5" y2="132.87" gradientUnits="userSpaceOnUse">
<stop stop-color="#FCAE48"/>
<stop offset="1" stop-color="#FFA3C5"/>
</linearGradient>
<clipPath id="clip0_98_19">
<rect width="133" height="133" fill="white"/>
</clipPath>
</defs>
</svg>
