<svg width="59" height="60" viewBox="0 0 59 60" fill="none" xmlns="http://www.w3.org/2000/svg">
<path d="M20.3639 25.5403L22.5743 32.4836H15.3602L17.5284 25.5403C18.0291 23.8671 18.4457 21.9012 18.863 20.2698H18.9464C19.3632 21.9012 19.8221 23.8252 20.3639 25.5403ZM43.0051 27.0459C39.8357 27.0459 38.5015 29.9322 38.2927 32.0233H47.2165C47.2586 30.1414 46.4246 27.0459 43.0051 27.0459ZM58.8655 10.7935V50.1587C58.8655 55.5714 54.4506 60 49.0545 60H9.81095C4.41491 59.9999 0 55.5713 0 50.1586V10.7935C0 5.38073 4.41491 0.952148 9.81095 0.952148H49.0547C54.4506 0.952148 58.8655 5.38073 58.8655 10.7935ZM31.498 44.3634L22.3659 16.1706H15.8188L6.81158 44.3634H12.1075L14.5263 36.3741H23.45L25.9938 44.3634H31.498ZM52.0539 33.4456C52.0539 28.9702 49.8852 23.5323 43.2968 23.5323C36.7917 23.5323 33.3725 28.8446 33.3725 34.4914C33.3725 40.7239 37.2503 44.7815 43.8391 44.7815C46.758 44.7815 49.1766 44.2375 50.9281 43.5264L50.1774 39.9714C48.6343 40.5565 46.9247 40.8911 44.5476 40.8911C41.2954 40.8911 38.4182 39.302 38.2926 35.6207H51.8871C51.9705 35.1607 52.0539 34.4077 52.0539 33.4456Z" fill="url(#paint0_linear_135_21)"/>
<defs>
<linearGradient id="paint0_linear_135_21" x1="29.4327" y1="0.952148" x2="29.4327" y2="60" gradientUnits="userSpaceOnUse">
<stop stop-color="#FCAE48"/>
<stop offset="1" stop-color="#FFA3C5"/>
</linearGradient>
</defs>
</svg>
