<svg width="31" height="31" viewBox="0 0 31 31" fill="none" xmlns="http://www.w3.org/2000/svg">
<path d="M10.7235 12.908L11.8875 16.553H8.08858L9.23035 12.908C9.49399 12.0296 9.7134 10.9976 9.93312 10.1411H9.97704C10.1965 10.9976 10.4382 12.0076 10.7235 12.908ZM22.6462 13.6984C20.9772 13.6984 20.2746 15.2136 20.1647 16.3113H24.8639C24.8861 15.3234 24.4469 13.6984 22.6462 13.6984ZM30.9982 5.16638V25.8318C30.9982 28.6734 28.6733 30.9982 25.8318 30.9982H5.16638C2.32486 30.9982 0 28.6733 0 25.8318V5.16638C0 2.32486 2.32486 0 5.16638 0H25.8318C28.6733 0 30.9982 2.32486 30.9982 5.16638ZM16.5866 22.7895L11.7777 7.98922H8.33007L3.58693 22.7895H6.37573L7.64945 18.5954H12.3486L13.6881 22.7895H16.5866ZM27.4112 17.058C27.4112 14.7086 26.2692 11.8539 22.7998 11.8539C19.3743 11.8539 17.5737 14.6427 17.5737 17.607C17.5737 20.8789 19.6158 23.009 23.0854 23.009C24.6224 23.009 25.8961 22.7234 26.8184 22.3501L26.423 20.4838C25.6105 20.791 24.7102 20.9666 23.4585 20.9666C21.7458 20.9666 20.2308 20.1324 20.1646 18.1999H27.3234C27.3673 17.9584 27.4112 17.5631 27.4112 17.058Z" fill="url(#paint0_linear_92_3)"/>
<defs>
<linearGradient id="paint0_linear_92_3" x1="15.4991" y1="0" x2="15.4991" y2="30.9982" gradientUnits="userSpaceOnUse">
<stop stop-color="#FDAE4D"/>
<stop offset="1" stop-color="#FFA3C5"/>
</linearGradient>
</defs>
</svg>
