<svg width="60" height="59" viewBox="0 0 60 59" fill="none" xmlns="http://www.w3.org/2000/svg">
<path d="M48.697 21.4327V26.3496C48.697 26.5513 48.5729 26.626 48.2969 26.626C48.1788 26.6219 48.0408 26.6179 47.9028 26.6179C46.3083 26.6179 44.7939 26.9649 43.4296 27.5863L43.4976 27.5581C42.9975 27.7881 42.5734 28.1028 42.2253 28.4882L42.2233 28.4922V41.3502C42.2233 41.6024 42.1232 41.7033 41.8992 41.7033H36.9739C36.9579 41.7053 36.9399 41.7073 36.9218 41.7073C36.7438 41.7073 36.5978 41.5742 36.5758 41.4027V27.3321L36.5517 25.4416L36.5017 23.4745C36.5017 22.8955 36.4517 22.3406 36.4017 21.7596C36.3997 21.7495 36.3997 21.7354 36.3997 21.7233C36.3997 21.6103 36.4737 21.5134 36.5758 21.4832H41.0269C41.269 21.4832 41.4751 21.6547 41.5271 21.8826V21.8867C41.7331 22.5505 41.8532 23.3131 41.8532 24.102C41.8532 24.1383 41.8532 24.1746 41.8532 24.2109V24.2049C42.6054 23.3333 43.4996 22.6069 44.5039 22.0622L44.5539 22.038C45.6382 21.4186 46.9365 21.0554 48.3169 21.0554C48.3289 21.0554 48.3429 21.0554 48.3549 21.0554H48.3529C48.3649 21.0534 48.3789 21.0534 48.3929 21.0534C48.5529 21.0534 48.685 21.1745 48.703 21.3318L48.697 21.4327ZM31.6484 29.3759C30.6482 30.768 29.2778 31.8333 27.6834 32.4325L27.6234 32.4527C26.073 32.9995 24.2865 33.3162 22.428 33.3162C22.2779 33.3162 22.1259 33.3142 21.9759 33.3102H21.9979L20.7475 33.286L19.6732 33.2618V41.3543C19.6752 41.3704 19.6772 41.3866 19.6772 41.4047C19.6772 41.5641 19.5552 41.6952 19.3992 41.7073H14.5499C14.3498 41.7073 14.2498 41.6065 14.2498 41.3805V15.4365C14.2498 15.261 14.3238 15.1601 14.4999 15.1601L15.9002 15.1359L17.8007 15.0854L19.9753 15.035L22.2499 15.0108C22.376 15.0067 22.524 15.0047 22.672 15.0047C24.3645 15.0047 25.9889 15.2932 27.5033 15.8239L27.3993 15.7916C28.7077 16.2475 29.826 16.9537 30.7522 17.8616L30.7502 17.8596C31.5344 18.6525 32.1546 19.6108 32.5567 20.6781L32.5747 20.7326C32.9368 21.7071 33.1468 22.8329 33.1488 24.0092C33.1528 24.1161 33.1568 24.2432 33.1568 24.3703C33.1568 26.2386 32.5947 27.9717 31.6304 29.4122L31.6504 29.38L31.6484 29.3759ZM49.3732 0.00201743H10.6248C4.75727 0.00201743 0 4.79982 0 10.7174V48.2846C0 48.2867 0 48.2907 0 48.2927C0 54.2062 4.75327 59 10.6168 59C10.6208 59 10.6228 59 10.6268 59H49.3752C49.3772 59 49.3812 59 49.3832 59C55.2467 59 60 54.2062 60 48.2927C60 48.2887 60 48.2867 60 48.2826V10.7154C60 10.7133 60 10.7093 60 10.7073C60 4.79376 55.2467 0 49.3832 0C49.3792 0 49.3772 0.00201743 49.3732 0.00201743ZM25.3728 20.4744C24.5806 20.1516 23.6623 19.9639 22.7001 19.9639C22.602 19.9639 22.506 19.9659 22.41 19.97H22.424C21.5157 19.9511 20.6075 19.968 19.6993 20.0204V28.4922L20.6735 28.5427H21.9979C22.0019 28.5427 22.0059 28.5427 22.0079 28.5427C23.0321 28.5427 24.0164 28.3772 24.9386 28.0705L24.8726 28.0887C25.6948 27.8405 26.391 27.3745 26.9172 26.7571L26.9212 26.7511C27.4093 26.1054 27.7034 25.2883 27.7034 24.4006C27.7034 24.3138 27.7014 24.2291 27.6954 24.1423V24.1544C27.7014 24.0757 27.7054 23.9829 27.7054 23.8901C27.7054 22.3386 26.7471 21.0131 25.3948 20.4824L25.3728 20.4744Z" fill="url(#paint0_linear_135_26)"/>
<defs>
<linearGradient id="paint0_linear_135_26" x1="30" y1="0" x2="30" y2="59" gradientUnits="userSpaceOnUse">
<stop stop-color="#FCAE48"/>
<stop offset="1" stop-color="#FFA3C5"/>
</linearGradient>
</defs>
</svg>
